<mxfile host="app.diagrams.net" modified="2023-08-31T14:24:37.487Z" agent="Mozilla/5.0 (Windows NT 10.0; Win64; x64) AppleWebKit/537.36 (KHTML, like Gecko) Chrome/116.0.0.0 Safari/537.36" etag="8vrEbaH4PcfGVgn4EczL" version="21.6.8" type="device">
  <diagram name="Page-1" id="eC2k_G6RV29ssMfWNKxb">
    <mxGraphModel dx="1434" dy="750" grid="1" gridSize="10" guides="1" tooltips="1" connect="1" arrows="1" fold="1" page="1" pageScale="1" pageWidth="850" pageHeight="1100" math="0" shadow="0">
      <root>
        <mxCell id="0" />
        <mxCell id="1" parent="0" />
        <mxCell id="xKuz9qyHJNCxHvOZOzjL-13" value="PySpark Program" style="swimlane;whiteSpace=wrap;html=1;fillColor=#d5e8d4;strokeColor=#82b366;" vertex="1" parent="1">
          <mxGeometry x="440" y="40" width="440" height="390" as="geometry" />
        </mxCell>
        <mxCell id="xKuz9qyHJNCxHvOZOzjL-14" value="&lt;div style=&quot;color: rgb(59, 59, 59); background-color: rgb(255, 255, 255); font-family: Consolas, &amp;quot;Courier New&amp;quot;, monospace; line-height: 19px;&quot;&gt;&lt;div style=&quot;line-height: 19px;&quot;&gt;&lt;div&gt;&amp;nbsp;from &lt;span style=&quot;color: #267f99;&quot;&gt;pyspark&lt;/span&gt; &lt;span style=&quot;color: #af00db;&quot;&gt;import&lt;/span&gt; &lt;span style=&quot;color: #267f99;&quot;&gt;SparkContext&lt;/span&gt;, &lt;span style=&quot;color: #267f99;&quot;&gt;SparkConf&lt;/span&gt;&lt;/div&gt;&lt;br&gt;&lt;div&gt;&lt;span style=&quot;color: #0000ff;&quot;&gt;&amp;nbsp;def&lt;/span&gt; &lt;span style=&quot;color: #795e26;&quot;&gt;get_or_create_spark_context&lt;/span&gt;():&lt;/div&gt;&lt;div&gt;&amp;nbsp; &amp;nbsp; &lt;span style=&quot;color: #001080;&quot;&gt;conf&lt;/span&gt; &lt;span style=&quot;color: #000000;&quot;&gt;=&lt;/span&gt; &lt;span style=&quot;color: #267f99;&quot;&gt;SparkConf&lt;/span&gt;().&lt;span style=&quot;color: #795e26;&quot;&gt;setAppName&lt;/span&gt;(&lt;span style=&quot;color: #a31515;&quot;&gt;&#39;App0&#39;&lt;/span&gt;).&lt;span style=&quot;color: #795e26;&quot;&gt;setMaster&lt;/span&gt;(&lt;span style=&quot;color: #a31515;&quot;&gt;&#39;local[2]&#39;&lt;/span&gt;)&lt;/div&gt;&lt;div&gt;&amp;nbsp; &amp;nbsp; &lt;span style=&quot;color: #af00db;&quot;&gt;return&lt;/span&gt; &lt;span style=&quot;color: #267f99;&quot;&gt;SparkContext&lt;/span&gt;.&lt;span style=&quot;color: #795e26;&quot;&gt;getOrCreate&lt;/span&gt;(&lt;span style=&quot;color: #001080;&quot;&gt;conf&lt;/span&gt;)&lt;/div&gt;&lt;div&gt;&lt;span style=&quot;color: #0000ff;&quot;&gt;&amp;nbsp;def&lt;/span&gt; &lt;span style=&quot;color: #795e26;&quot;&gt;even_filter&lt;/span&gt;(&lt;span style=&quot;color: #001080;&quot;&gt;numbers&lt;/span&gt;):&lt;/div&gt;&lt;div&gt;&amp;nbsp; &amp;nbsp; &lt;span style=&quot;color: #001080;&quot;&gt;evens&lt;/span&gt; &lt;span style=&quot;color: #000000;&quot;&gt;=&lt;/span&gt; []&lt;/div&gt;&lt;div&gt;&amp;nbsp; &amp;nbsp; &lt;span style=&quot;color: #001080;&quot;&gt;sc&lt;/span&gt; &lt;span style=&quot;color: #000000;&quot;&gt;=&lt;/span&gt; &lt;span style=&quot;color: #795e26;&quot;&gt;get_or_create_spark_context&lt;/span&gt;()&lt;/div&gt;&lt;div&gt;&amp;nbsp; &amp;nbsp; &lt;span style=&quot;color: #001080;&quot;&gt;numbers_rdd&lt;/span&gt; &lt;span style=&quot;color: #000000;&quot;&gt;=&lt;/span&gt; &lt;span style=&quot;color: #001080;&quot;&gt;sc&lt;/span&gt;.&lt;span style=&quot;color: #795e26;&quot;&gt;parallelize&lt;/span&gt;(&lt;span style=&quot;color: #001080;&quot;&gt;numbers&lt;/span&gt;)&lt;/div&gt;&lt;div&gt;&amp;nbsp; &amp;nbsp; &lt;span style=&quot;color: #001080;&quot;&gt;evens&lt;/span&gt; &lt;span style=&quot;color: #000000;&quot;&gt;=&lt;/span&gt; &lt;span style=&quot;color: #001080;&quot;&gt;numbers_rdd&lt;/span&gt;.&lt;span style=&quot;color: #795e26;&quot;&gt;filter&lt;/span&gt;(&lt;span style=&quot;color: #0000ff;&quot;&gt;lambda&lt;/span&gt; &lt;span style=&quot;color: #001080;&quot;&gt;num&lt;/span&gt;: &lt;span style=&quot;color: #001080;&quot;&gt;num&lt;/span&gt; &lt;span style=&quot;color: #000000;&quot;&gt;%&lt;/span&gt; &lt;span style=&quot;color: #098658;&quot;&gt;2&lt;/span&gt; &lt;span style=&quot;color: #000000;&quot;&gt;==&lt;/span&gt; &lt;span style=&quot;color: #098658;&quot;&gt;0&lt;/span&gt;).&lt;span style=&quot;color: #795e26;&quot;&gt;collect&lt;/span&gt;()&lt;/div&gt;&lt;div&gt;&amp;nbsp; &amp;nbsp; &lt;span style=&quot;color: #001080;&quot;&gt;sc&lt;/span&gt;.&lt;span style=&quot;color: #795e26;&quot;&gt;stop&lt;/span&gt;()&lt;/div&gt;&lt;div&gt;&amp;nbsp; &amp;nbsp; &lt;span style=&quot;color: #af00db;&quot;&gt;return&lt;/span&gt; &lt;span style=&quot;color: #001080;&quot;&gt;evens&lt;/span&gt;&lt;/div&gt;&lt;div&gt;&lt;span style=&quot;color: #0000ff;&quot;&gt;&amp;nbsp;def&lt;/span&gt; &lt;span style=&quot;color: #795e26;&quot;&gt;length_counter&lt;/span&gt;(&lt;span style=&quot;color: #001080;&quot;&gt;strings&lt;/span&gt;):&lt;/div&gt;&lt;div&gt;&amp;nbsp; &amp;nbsp; &lt;span style=&quot;color: #001080;&quot;&gt;lengths&lt;/span&gt; &lt;span style=&quot;color: #000000;&quot;&gt;=&lt;/span&gt; []&lt;/div&gt;&lt;div&gt;&amp;nbsp; &amp;nbsp; &lt;span style=&quot;color: #001080;&quot;&gt;sc&lt;/span&gt; &lt;span style=&quot;color: #000000;&quot;&gt;=&lt;/span&gt; &lt;span style=&quot;color: #795e26;&quot;&gt;get_or_create_spark_context&lt;/span&gt;()&lt;/div&gt;&lt;div&gt;&amp;nbsp; &amp;nbsp; &lt;span style=&quot;color: #001080;&quot;&gt;strings_rdd&lt;/span&gt; &lt;span style=&quot;color: #000000;&quot;&gt;=&lt;/span&gt; &lt;span style=&quot;color: #001080;&quot;&gt;sc&lt;/span&gt;.&lt;span style=&quot;color: #795e26;&quot;&gt;parallelize&lt;/span&gt;(&lt;span style=&quot;color: #001080;&quot;&gt;strings&lt;/span&gt;)&lt;/div&gt;&lt;div&gt;&amp;nbsp; &amp;nbsp; &lt;span style=&quot;color: #001080;&quot;&gt;lengths&lt;/span&gt; &lt;span style=&quot;color: #000000;&quot;&gt;=&lt;/span&gt; &lt;span style=&quot;color: #001080;&quot;&gt;strings_rdd&lt;/span&gt;.&lt;span style=&quot;color: #795e26;&quot;&gt;map&lt;/span&gt;(&lt;span style=&quot;color: #0000ff;&quot;&gt;lambda&lt;/span&gt; &lt;span style=&quot;color: #001080;&quot;&gt;s&lt;/span&gt;: &lt;span style=&quot;color: #795e26;&quot;&gt;len&lt;/span&gt;(&lt;span style=&quot;color: #001080;&quot;&gt;s&lt;/span&gt;)).&lt;span style=&quot;color: #795e26;&quot;&gt;collect&lt;/span&gt;()&lt;/div&gt;&lt;div&gt;&amp;nbsp; &amp;nbsp; &lt;span style=&quot;color: #001080;&quot;&gt;sc&lt;/span&gt;.&lt;span style=&quot;color: #795e26;&quot;&gt;stop&lt;/span&gt;()&lt;/div&gt;&lt;div&gt;&amp;nbsp; &amp;nbsp; &lt;span style=&quot;color: #af00db;&quot;&gt;return&lt;/span&gt; &lt;span style=&quot;color: #001080;&quot;&gt;lengths&lt;/span&gt;&lt;/div&gt;&lt;/div&gt;&lt;/div&gt;" style="text;html=1;strokeColor=none;fillColor=default;align=left;verticalAlign=middle;whiteSpace=wrap;rounded=0;" vertex="1" parent="xKuz9qyHJNCxHvOZOzjL-13">
          <mxGeometry y="26" width="440" height="359" as="geometry" />
        </mxCell>
        <mxCell id="xKuz9qyHJNCxHvOZOzjL-8" value="Python Program" style="swimlane;whiteSpace=wrap;html=1;fillColor=#ffe6cc;strokeColor=#d79b00;" vertex="1" parent="1">
          <mxGeometry x="70" y="80" width="250" height="287" as="geometry" />
        </mxCell>
        <mxCell id="xKuz9qyHJNCxHvOZOzjL-12" value="&lt;div style=&quot;color: rgb(59, 59, 59); background-color: rgb(255, 255, 255); font-family: Consolas, &amp;quot;Courier New&amp;quot;, monospace; font-size: 14px; line-height: 19px;&quot;&gt;&lt;div&gt;&amp;nbsp;def &lt;span style=&quot;color: #795e26;&quot;&gt;even_filter&lt;/span&gt;(&lt;span style=&quot;color: #001080;&quot;&gt;numbers&lt;/span&gt;):&lt;/div&gt;&lt;div&gt;&amp;nbsp; &amp;nbsp; &lt;span style=&quot;color: #001080;&quot;&gt;evens&lt;/span&gt; &lt;span style=&quot;color: #000000;&quot;&gt;=&lt;/span&gt; []&lt;/div&gt;&lt;div&gt;&amp;nbsp; &amp;nbsp; &lt;span style=&quot;color: #af00db;&quot;&gt;for&lt;/span&gt; &lt;span style=&quot;color: #001080;&quot;&gt;num&lt;/span&gt; &lt;span style=&quot;color: #af00db;&quot;&gt;in&lt;/span&gt; &lt;span style=&quot;color: #001080;&quot;&gt;numbers&lt;/span&gt;:&lt;/div&gt;&lt;div&gt;&amp;nbsp; &amp;nbsp; &amp;nbsp; &amp;nbsp; &lt;span style=&quot;color: #af00db;&quot;&gt;if&lt;/span&gt; &lt;span style=&quot;color: #001080;&quot;&gt;num&lt;/span&gt; &lt;span style=&quot;color: #000000;&quot;&gt;%&lt;/span&gt; &lt;span style=&quot;color: #098658;&quot;&gt;2&lt;/span&gt; &lt;span style=&quot;color: #000000;&quot;&gt;==&lt;/span&gt; &lt;span style=&quot;color: #098658;&quot;&gt;0&lt;/span&gt;:&lt;/div&gt;&lt;div&gt;&amp;nbsp; &amp;nbsp; &amp;nbsp; &amp;nbsp; &amp;nbsp; &amp;nbsp; &lt;span style=&quot;color: #001080;&quot;&gt;evens&lt;/span&gt;.&lt;span style=&quot;color: #795e26;&quot;&gt;append&lt;/span&gt;(&lt;span style=&quot;color: #001080;&quot;&gt;num&lt;/span&gt;)&lt;/div&gt;&lt;div&gt;&amp;nbsp; &amp;nbsp; &lt;span style=&quot;color: #af00db;&quot;&gt;return&lt;/span&gt; &lt;span style=&quot;color: #001080;&quot;&gt;evens&lt;/span&gt;&lt;/div&gt;&lt;br&gt;&lt;div&gt;&lt;span style=&quot;color: #0000ff;&quot;&gt;&amp;nbsp;def&lt;/span&gt; &lt;span style=&quot;color: #795e26;&quot;&gt;length_counter&lt;/span&gt;(&lt;span style=&quot;color: #001080;&quot;&gt;strings&lt;/span&gt;):&lt;/div&gt;&lt;div&gt;&amp;nbsp; &amp;nbsp; &lt;span style=&quot;color: #001080;&quot;&gt;lengths&lt;/span&gt; &lt;span style=&quot;color: #000000;&quot;&gt;=&lt;/span&gt; []&lt;/div&gt;&lt;div&gt;&amp;nbsp; &amp;nbsp; &lt;span style=&quot;color: #af00db;&quot;&gt;for&lt;/span&gt; &lt;span style=&quot;color: #001080;&quot;&gt;s&lt;/span&gt; &lt;span style=&quot;color: #af00db;&quot;&gt;in&lt;/span&gt; &lt;span style=&quot;color: #001080;&quot;&gt;strings&lt;/span&gt;:&lt;/div&gt;&lt;div&gt;&amp;nbsp; &amp;nbsp; &amp;nbsp; &amp;nbsp; &lt;span style=&quot;color: #001080;&quot;&gt;lengths&lt;/span&gt;.&lt;span style=&quot;color: #795e26;&quot;&gt;append&lt;/span&gt;(&lt;span style=&quot;color: #795e26;&quot;&gt;len&lt;/span&gt;(&lt;span style=&quot;color: #001080;&quot;&gt;s&lt;/span&gt;))&lt;/div&gt;&lt;div&gt;&amp;nbsp; &amp;nbsp; &lt;span style=&quot;color: #af00db;&quot;&gt;return&lt;/span&gt; &lt;span style=&quot;color: #001080;&quot;&gt;lengths&lt;/span&gt;&lt;/div&gt;&lt;/div&gt;" style="text;html=1;strokeColor=none;fillColor=default;align=left;verticalAlign=middle;whiteSpace=wrap;rounded=0;" vertex="1" parent="xKuz9qyHJNCxHvOZOzjL-8">
          <mxGeometry y="25" width="250" height="255" as="geometry" />
        </mxCell>
        <mxCell id="xKuz9qyHJNCxHvOZOzjL-17" value="&lt;h3&gt;&lt;font face=&quot;Georgia&quot;&gt;ROOP&amp;nbsp;&lt;br&gt;Translation&lt;/font&gt;&lt;/h3&gt;" style="text;html=1;strokeColor=none;fillColor=none;align=center;verticalAlign=middle;whiteSpace=wrap;rounded=0;" vertex="1" parent="1">
          <mxGeometry x="320" y="160" width="120" height="30" as="geometry" />
        </mxCell>
        <mxCell id="xKuz9qyHJNCxHvOZOzjL-23" value="" style="shape=flexArrow;endArrow=classic;html=1;rounded=0;entryX=0;entryY=0.373;entryDx=0;entryDy=0;entryPerimeter=0;fillColor=#f8cecc;strokeColor=#b85450;" edge="1" parent="1">
          <mxGeometry width="50" height="50" relative="1" as="geometry">
            <mxPoint x="320" y="209" as="sourcePoint" />
            <mxPoint x="440" y="208.90700000000004" as="targetPoint" />
          </mxGeometry>
        </mxCell>
      </root>
    </mxGraphModel>
  </diagram>
</mxfile>
